<svg xmlns="http://www.w3.org/2000/svg" xmlns:xlink="http://www.w3.org/1999/xlink" width="320" height="159.834" viewBox="0 0 320 159.834">
  <defs>
    <clipPath id="clip-path">
      <rect id="Rectangle_5" data-name="Rectangle 5" width="320" height="159.835" transform="translate(0 0.321)" fill="#fff" stroke="#707070" stroke-width="1"/>
    </clipPath>
  </defs>
  <g id="Mask_Group_3" data-name="Mask Group 3" transform="translate(0 -0.322)" clip-path="url(#clip-path)">
    <g id="spacex_1_" data-name="spacex (1)" transform="translate(0 49.954)">
      <path id="Path_16" data-name="Path 16" d="M230.754,544.414H203.732l-.965,1.181v36.763H210.2V568.48l.675-1.033h19.881c5.018,0,7.335-2.067,7.335-7.382v-8.416c0-5.168-2.316-7.235-7.334-7.235m0,13.583c0,2.51-1.062,2.953-3.474,2.953H210.97l-.772-1.033v-7.825l.675-1.034h16.406c2.316,0,3.474.443,3.474,2.953Zm21.039-6.644,6.466,14.469-.386,1.329H243.589l-3.667,6.939h21.231l1.544,1.329,3.281,6.939h8.589l-18.819-38.387m81.259,31V564.641l.772-1.034h14.38v-6.5H329.384v25.247h33.585v-6.5H337.877m-8.493-31.448h33.874V551.5H329.384Zm-37.734,6.792h27.311c-.386-5.315-2.606-6.792-8.01-6.792H291.36c-6.176,0-8.107,1.772-8.107,9.006V573.5c0,7.087,1.93,9.006,8.107,9.006h19.591c5.5,0,7.624-1.624,7.817-7.087H291.65l-.772-1.181V552.092M184.43,559.178H164.646l-.579-1.033v-6.5l.579-.738h26.732l.386-1.329c-.869-3.544-3.281-5.315-7.624-5.315H165.515c-6.176,0-8.107,1.772-8.107,9.006v4.282c0,7.087,1.93,9.006,8.107,9.006H185.3l.579.885v6.792l-.482,1.034H156.829s-.675.59-.675.738c.482,5.02,2.7,6.349,8.01,6.349H184.43c6.176,0,8.2-1.772,8.2-9.006v-5.168c0-7.087-2.027-9.006-8.2-9.006m200.156-14.912H373.391l-.579,1.772,12.353,13.879c2.316-2.067,4.922-4.134,7.624-6.2m1.834,16.536,10.905,12.107h11.195l.482-1.624-16.213-18.16c-2.123,2.51-4.343,5.02-6.37,7.678" transform="translate(-156.154 -522.119)" fill="#005288"/>
      <path id="Path_17" data-name="Path 17" d="M827.976,560.469H817.842l-.869-2.067c6.852-10.187,37.541-53.594,104.228-58.171,0,0-55.878,2.953-93.226,60.238" transform="translate(-601.184 -500.231)" fill="#a7a9ac"/>
    </g>
  </g>
</svg>
